<svg id="Layer_1" data-name="Layer 1" xmlns="http://www.w3.org/2000/svg" viewBox="0 0 1035.47 481.45"><defs><style>.cls-1{fill:#36a7cc;}.cls-2{fill:#72badb;}.cls-3{fill:#517f93;}.cls-4{fill:#4b8b95;}.cls-5{fill:#3b4d57;}.cls-6{font-size:139.53px;fill:#1a3a49;font-family:FuturaBT-Bold, Futura Md BT;font-weight:700;}.cls-7{letter-spacing:-0.04em;}</style></defs><title>Logo</title><circle class="cls-1" cx="559.74" cy="35.41" r="35.41"/><path class="cls-2" d="M535.58,111.77s11.32.93,15.95,3.4,8.33,8,11.42,12.34,6.17,12.65,7.4,17.59c0,0-2.16,19.13-2.78,25.92s-4.93,21.61-5.86,30.25.62,22.84.62,22.84l1.54,11.72S575.6,257.75,575.29,259s12.34,28.7,12.34,28.7L596.89,304l6,10.85s2.67,9.21.82,12.6-8.33,8-14.19,6.79-9.26-5.24-13-7.4-7.71-12.35-11.11-19.76-11.11-21.6-11.11-21.6l-7.71-14.2-10.19-18.2-9.87-14.2-12-18.52s-4-16.05-4-21,3.4-19.14,3.4-19.14l2.77-11.42-17.59,24.08L492.58,200l-25.92-7.71s4.63-13.27,9.87-19.75,6.48-13,14.2-21,10.49-14.19,13.58-20.37,11.11-17,13.58-17.76S535.58,111.77,535.58,111.77Z" transform="translate(-5.59 -37.7)"/><path class="cls-3" d="M511.64,226.81s15.51,24.3,18.05,35.41c0,0,1.16,10.18-1.16,15.74l-43.74,56.53s-26.85,10.13-25-14.4c0,0,37.27-49.54,40.28-59.72l-.47-22.45S503.63,225.28,511.64,226.81Z" transform="translate(-5.59 -37.7)"/><path class="cls-4" d="M574,157.91s-4.78,32.56-3.55,35.64c0,0,31.48,30.92,36.11,33.13,0,0,29.32,4.83,17.44-21.86,0,0-35.19-32.41-37.5-36.26C586.53,168.56,576.19,153.12,574,157.91Z" transform="translate(-5.59 -37.7)"/><path class="cls-5" d="M466.66,192.32,492.58,200s-6.87,10.81-11.26,17.52-55.32,78-55.32,78-8.1,2.55-10.88,0c0,0-28-18.75-40.51,10.88,0,0-8.79,3.24-12,0,0,0-6.72-9.95-5.33-22,0,0,40.05-62.49,46.3-68.51,0,0,12.73-12.73,27.77-.23l14.58,11Z" transform="translate(-5.59 -37.7)"/><circle class="cls-5" cx="393.76" cy="280.8" r="20.11"/><text class="cls-6" transform="translate(0 448.41)">Fams <tspan class="cls-7" x="411.51" y="0">T</tspan><tspan x="482.43" y="0">raveller</tspan></text></svg>